<?xml version="1.0" encoding="utf-8"?>
<!-- Generator: Adobe Illustrator 26.0.3, SVG Export Plug-In . SVG Version: 6.00 Build 0)  -->
<svg version="1.1" id="Layer_1" xmlns="http://www.w3.org/2000/svg" xmlns:xlink="http://www.w3.org/1999/xlink" x="0px" y="0px"
	 width="201.6px" height="52.8px" viewBox="0 0 201.6 52.8" style="enable-background:new 0 0 201.6 52.8;" xml:space="preserve">
<style type="text/css">
	.st0{fill-rule:evenodd;clip-rule:evenodd;fill:#FFFFFF;}
	.st1{clip-path:url(#SVGID_00000151529954071564937400000000128663585439175844_);}
	.st2{fill-rule:evenodd;clip-rule:evenodd;fill:#0099FF;}
	.st3{fill:#0099FF;}
</style>
<g id="Layer_x0020_1">
	<g id="_2209732561824">
		<g>
			<path class="st0" d="M6.8,1.5h187.9c3,0,5.5,2.5,5.5,5.5v38.8c0,3-2.5,5.5-5.5,5.5H6.8c-3,0-5.5-2.5-5.5-5.5V7
				C1.3,4,3.8,1.5,6.8,1.5z"/>
			<g>
				<defs>
					<path id="SVGID_1_" d="M6.8,1.5h187.9c3,0,5.5,2.5,5.5,5.5v38.8c0,3-2.5,5.5-5.5,5.5H6.8c-3,0-5.5-2.5-5.5-5.5V7
						C1.3,4,3.8,1.5,6.8,1.5z"/>
				</defs>
				<clipPath id="SVGID_00000000932448375376223880000000492803078975181440_">
					<use xlink:href="#SVGID_1_"  style="overflow:visible;"/>
				</clipPath>
				<g style="clip-path:url(#SVGID_00000000932448375376223880000000492803078975181440_);">
					<g>
						<rect x="-4.6" y="-1.8" class="st2" width="25.3" height="58.7"/>
					</g>
				</g>
			</g>
			<g>
				<path d="M194.7,3H6.8V0h187.9l0,0V3z M201.5,7h-2.6l0,0l0-0.2l0-0.2l0-0.2l0-0.2l0-0.2l-0.1-0.2l-0.1-0.2l-0.1-0.2l-0.1-0.2
					l-0.1-0.2L198.4,5l-0.1-0.2l-0.1-0.2L198,4.5l-0.1-0.1l-0.1-0.1l-0.1-0.1L197.5,4l-0.2-0.1l-0.2-0.1L197,3.6l-0.2-0.1l-0.2-0.1
					l-0.2-0.1l-0.2-0.1L196,3.2l-0.2-0.1l-0.2,0l-0.2,0l-0.2,0L195,3l-0.2,0V0l0.3,0l0.3,0l0.3,0l0.3,0.1l0.3,0.1l0.3,0.1l0.3,0.1
					l0.3,0.1l0.3,0.1l0.3,0.1l0.3,0.2l0.3,0.2l0.3,0.2l0.3,0.2l0.2,0.2l0.2,0.2l0.2,0.2l0.2,0.3l0.2,0.3l0.2,0.3l0.2,0.3l0.2,0.3
					l0.2,0.3l0.1,0.3l0.1,0.3l0.1,0.3l0.1,0.3l0.1,0.3l0.1,0.4l0,0.4l0,0.4L201.5,7L201.5,7L201.5,7z M198.9,45.8V7h2.6v38.8l0,0
					H198.9z M194.7,52.8v-3l0,0l0.2,0l0.2,0l0.2,0l0.2,0l0.2,0l0.2-0.1l0.2-0.1l0.2-0.1l0.2-0.1l0.2-0.1l0.2-0.1l0.2-0.1l0.2-0.1
					l0.2-0.1l0.2-0.1l0.1-0.1l0.1-0.1l0.1-0.1l0.1-0.2l0.1-0.2l0.1-0.2l0.1-0.2l0.1-0.2l0.1-0.2l0.1-0.2l0.1-0.2l0.1-0.2l0-0.2
					l0-0.2l0-0.2l0-0.2l0-0.2h2.6l0,0.4l0,0.4l0,0.4l-0.1,0.4l-0.1,0.3l-0.1,0.3l-0.1,0.3l-0.1,0.3l-0.1,0.3l-0.2,0.3l-0.2,0.3
					l-0.2,0.3l-0.2,0.3l-0.2,0.3l-0.2,0.3l-0.2,0.2l-0.2,0.2l-0.2,0.2l-0.3,0.2l-0.3,0.2l-0.3,0.2l-0.3,0.2l-0.3,0.1l-0.3,0.1
					l-0.3,0.1l-0.3,0.1l-0.3,0.1l-0.3,0.1l-0.3,0.1l-0.3,0l-0.3,0L194.7,52.8L194.7,52.8L194.7,52.8z M6.8,49.8h187.9v3H6.8l0,0
					V49.8z M0,45.8h2.6l0,0l0,0.2l0,0.2l0,0.2l0,0.2l0,0.2l0.1,0.2l0.1,0.2l0.1,0.2L3,47.5l0.1,0.2l0.1,0.2L3.3,48l0.1,0.2l0.1,0.2
					l0.1,0.1l0.1,0.1l0.1,0.1l0.2,0.1L4.2,49l0.2,0.1l0.2,0.1l0.2,0.1l0.2,0.1l0.2,0.1l0.2,0.1l0.2,0.1l0.2,0.1l0.2,0l0.2,0l0.2,0
					l0.2,0l0.2,0v3l-0.3,0l-0.3,0l-0.3,0l-0.3-0.1l-0.3-0.1l-0.3-0.1l-0.3-0.1l-0.3-0.1l-0.3-0.1L3.6,52l-0.3-0.2l-0.3-0.2l-0.3-0.2
					l-0.3-0.2L2.3,51l-0.2-0.2l-0.2-0.2l-0.2-0.3l-0.2-0.3l-0.2-0.3L1,49.5l-0.2-0.3l-0.2-0.3l-0.1-0.3l-0.1-0.3l-0.1-0.3l-0.1-0.3
					l-0.1-0.3l-0.1-0.4l0-0.4l0-0.4L0,45.8L0,45.8L0,45.8z M2.6,7v38.8H0V7l0,0H2.6z M6.8,0v3l0,0L6.6,3L6.4,3L6.1,3l-0.2,0l-0.2,0
					L5.5,3.2L5.3,3.2L5.1,3.3L4.9,3.4L4.7,3.5L4.6,3.6L4.4,3.7L4.2,3.8L4.1,4L3.9,4.1L3.8,4.2L3.6,4.4L3.5,4.5L3.4,4.7L3.3,4.8
					L3.2,5L3.1,5.2L3,5.3L2.9,5.5L2.8,5.7L2.8,5.9L2.7,6l0,0.2l0,0.2l0,0.2l0,0.2l0,0.2H0l0-0.4l0-0.4l0-0.4l0.1-0.4l0.1-0.3
					l0.1-0.3l0.1-0.3l0.1-0.3l0.1-0.3l0.2-0.3L1,3.3L1.2,3l0.2-0.3l0.2-0.3l0.2-0.3L2.1,2l0.2-0.2l0.2-0.2l0.3-0.2l0.3-0.2L3.3,1
					l0.3-0.2l0.3-0.1l0.3-0.1l0.3-0.1l0.3-0.1l0.3-0.1l0.3-0.1l0.3-0.1l0.3,0l0.3,0L6.8,0L6.8,0L6.8,0z"/>
			</g>
			<g>
				<path d="M32,13h6.8v3.4c0.3-1.3,0.9-2.2,1.6-2.8c0.8-0.6,1.9-0.9,3.3-0.9c1.1,0,2.1,0.3,3,0.8s1.4,1.2,1.8,2.1
					c0.6-1,1.2-1.8,2-2.2c0.7-0.5,1.7-0.7,3-0.7c2.3,0,3.9,0.7,4.8,2.1c0.9,1.4,1.3,3.4,1.3,6.1l-0.1,21.4h-7V20.8
					c0-1.9-0.5-2.8-1.4-2.8c-0.7,0-1.1,0.3-1.4,1c-0.3,0.7-0.4,1.4-0.4,2.3v21h-7V20.8c0-0.8-0.1-1.5-0.3-2
					c-0.2-0.5-0.5-0.8-1.1-0.8c-0.7,0-1.2,0.4-1.5,1.1c-0.3,0.7-0.4,1.6-0.4,2.5v20.7H32L32,13L32,13z M70.9,42.6
					c-5.8,0-8.8-3-8.8-9.1V21.8c0-2.8,0.8-5,2.3-6.6c1.6-1.6,3.7-2.5,6.4-2.5c2.7,0,4.9,0.8,6.4,2.5c1.6,1.6,2.3,3.8,2.3,6.6v11.8
					C79.6,39.6,76.7,42.6,70.9,42.6L70.9,42.6z M70.9,37.2c0.6,0,1-0.2,1.2-0.6c0.3-0.4,0.4-0.9,0.4-1.6V20.6c0-1.7-0.5-2.6-1.6-2.6
					c-1.1,0-1.6,0.9-1.6,2.6V35c0,0.7,0.1,1.2,0.4,1.6C69.9,37,70.3,37.2,70.9,37.2L70.9,37.2z M93.6,42.6c-1.9,0-3.3-1.1-4.1-3.4
					v3.1h-7.2V7.7h7.2v6.7c1.1-1.1,2.4-1.7,3.9-1.7c2.3,0,3.9,0.7,4.9,2s1.5,3.3,1.5,5.8v14.1c0,2.4-0.5,4.3-1.5,5.8
					S95.6,42.6,93.6,42.6L93.6,42.6z M91.2,37.2c0.5,0,0.8-0.2,1-0.5c0.2-0.3,0.3-0.7,0.4-1.2c0-0.5,0.1-1.2,0.1-2.2V21.2
					c0-1-0.1-1.8-0.3-2.3c-0.2-0.5-0.6-0.8-1.2-0.8c-0.7,0-1.1,0.3-1.4,0.8c-0.2,0.5-0.4,1.3-0.4,2.2v12.3c0,1.3,0.1,2.2,0.3,2.9
					C90,36.8,90.5,37.2,91.2,37.2L91.2,37.2z M102.2,11V6.1h7V11H102.2z M102.2,42.3V13h7v29.3H102.2z M112,42.3V7.7h7.1v34.6H112z
					 M130.1,42.6c-3,0-5.2-0.8-6.5-2.5c-1.3-1.7-2-4.1-2-7.4V21c0-2.7,0.8-4.7,2.3-6.2c1.5-1.4,3.7-2.1,6.5-2.1
					c5.6,0,8.4,2.8,8.4,8.3v2.1c0,2.1,0,3.9-0.1,5.2h-10.2V34c0,1,0.1,1.8,0.3,2.4c0.2,0.6,0.7,0.9,1.4,0.9c0.5,0,0.9-0.2,1.1-0.5
					c0.2-0.3,0.4-0.7,0.4-1.1c0-0.4,0.1-1,0.1-1.8V31h7v1.7c0,3.4-0.7,5.9-2,7.5C135.6,41.8,133.4,42.6,130.1,42.6L130.1,42.6z
					 M132,24.8V21c0-2.1-0.5-3.2-1.6-3.2c-1.2,0-1.8,1.1-1.8,3.2v3.8C128.7,24.8,132,24.8,132,24.8z M161.9,42.6
					c-1.9,0-3.3-1.1-4.1-3.4v3.1h-7.2V7.7h7.2v6.7c1.1-1.1,2.4-1.7,3.9-1.7c2.3,0,3.9,0.7,4.9,2s1.5,3.3,1.5,5.8v14.1
					c0,2.4-0.5,4.3-1.5,5.8C165.6,41.9,164,42.6,161.9,42.6L161.9,42.6z M159.6,37.2c0.5,0,0.8-0.2,1-0.5c0.2-0.3,0.3-0.7,0.4-1.2
					c0-0.5,0.1-1.2,0.1-2.2V21.2c0-1-0.1-1.8-0.3-2.3c-0.2-0.5-0.6-0.8-1.2-0.8c-0.7,0-1.1,0.3-1.4,0.8c-0.2,0.5-0.4,1.3-0.4,2.2
					v12.3c0,1.3,0.1,2.2,0.3,2.9C158.4,36.8,158.8,37.2,159.6,37.2L159.6,37.2z M178.6,46.6c-2.1,0-3.7-0.2-4.9-0.5
					c-1.2-0.3-2.4-1-3.5-1.9l2.4-4c1.7,1,3.4,1.5,5.1,1.5c1.1,0,1.9-0.3,2.5-1c0.6-0.7,0.8-1.6,0.8-2.8v-1.6c-0.6,2-2,3-4.4,3
					c-2,0-3.5-0.7-4.4-2c-0.9-1.4-1.4-3.2-1.4-5.4v-11c0-2.6,0.4-4.6,1.3-5.9c0.9-1.4,2.4-2.1,4.5-2.1c1.3,0,2.2,0.3,3,0.9
					c0.7,0.6,1.2,1.5,1.5,2.7V13h7.2v24.3c0,3.3-0.8,5.6-2.3,7.1C184.3,45.8,181.9,46.6,178.6,46.6z M179.3,33.9c1.1,0,1.6-1,1.6-3
					V20.5c0-0.6-0.2-1.1-0.5-1.7c-0.3-0.5-0.7-0.8-1.2-0.8c-0.6,0-1,0.2-1.2,0.7c-0.2,0.4-0.3,1-0.3,1.8v10.4c0,0.9,0.1,1.6,0.3,2.1
					C178.2,33.6,178.7,33.9,179.3,33.9L179.3,33.9z"/>
				<polygon class="st3" points="141.1,42.3 141.1,36.4 148.1,36.4 148.1,42.3 				"/>
			</g>
		</g>
	</g>
</g>
</svg>
